<svg xmlns="http://www.w3.org/2000/svg"
    width="1024.000000pt" height="1024.000000pt" viewBox="0 0 1024.000000 1024.000000"
    preserveAspectRatio="xMidYMid meet">

    <g transform="translate(0.000000,1024.000000) scale(0.100000,-0.100000)"
        fill="#00AD48" stroke="none">
        <path d="M4434 7525 c-269 -58 -556 -360 -670 -705 -24 -74 -28 -101 -28 -210
-1 -111 2 -131 23 -177 l23 -53 -32 -53 c-104 -173 -291 -408 -833 -1050 -190
-225 -217 -269 -217 -354 1 -145 114 -236 251 -203 99 24 148 95 417 595 235
439 460 801 555 893 35 35 56 46 108 58 329 77 657 463 719 847 35 212 -28
372 -161 411 -62 19 -74 19 -155 1z"/>
        <path d="M1180 6828 c-19 -13 -40 -35 -47 -48 -19 -37 -16 -101 7 -138 34 -56
57 -60 348 -63 145 -1 265 -6 267 -9 3 -4 108 -422 235 -928 l230 -921 -51
-188 c-46 -166 -51 -195 -46 -255 11 -130 95 -243 213 -287 54 -21 71 -21
1035 -21 1076 0 1021 -3 1054 60 28 54 14 134 -31 171 -14 12 -169 15 -1001
19 l-985 5 -24 28 c-31 36 -30 53 6 170 l31 97 956 0 c950 0 957 0 1000 21 65
31 108 88 127 167 9 37 63 288 121 557 58 270 131 604 161 743 60 274 62 302
18 343 -25 23 -32 24 -198 27 l-173 3 -82 -56 c-102 -69 -176 -107 -264 -134
-38 -11 -81 -30 -97 -41 -58 -41 -214 -297 -520 -855 -173 -315 -287 -506
-335 -562 -21 -25 -62 -55 -99 -73 -152 -75 -335 -16 -414 134 -23 44 -27 63
-27 141 0 84 2 94 35 152 19 34 116 160 215 279 438 527 505 610 641 790 78
105 144 197 146 205 3 12 -116 15 -782 19 l-785 5 -46 182 c-74 290 -51 277
-484 281 l-321 3 -34 -23z"/>
        <path d="M8837 6234 c-3 -3 -3 -99 0 -213 l6 -206 -22 22 c-50 52 -99 68 -206
67 -128 0 -192 -24 -273 -99 -100 -92 -150 -233 -138 -391 12 -159 68 -273
170 -341 66 -45 115 -57 221 -57 106 0 177 25 225 80 32 37 38 40 37 22 0 -7
1 -30 1 -50 l2 -38 110 0 110 0 -2 603 -3 602 -116 3 c-63 1 -118 0 -122 -4z
m-69 -552 c18 -13 42 -42 54 -65 19 -36 22 -57 22 -152 -1 -187 -58 -265 -192
-265 -78 0 -131 33 -167 104 -28 55 -30 68 -30 160 1 83 4 108 22 141 43 82
87 106 188 102 55 -2 77 -7 103 -25z"/>
        <path d="M5398 6196 c-101 -29 -190 -104 -231 -195 -31 -68 -31 -219 0 -277
46 -87 110 -125 327 -195 174 -57 227 -85 250 -133 21 -45 20 -74 -4 -114 -31
-51 -95 -75 -189 -70 -100 4 -162 34 -196 92 -14 24 -25 50 -25 60 0 15 -12
16 -112 14 l-113 -3 3 -49 c5 -96 70 -199 157 -250 185 -108 497 -83 630 49
111 112 127 329 31 441 -46 54 -125 94 -298 153 -210 72 -238 92 -238 168 0
78 65 123 180 123 43 0 82 -6 99 -15 37 -19 81 -71 81 -96 0 -18 8 -19 111
-19 l112 0 -7 41 c-18 111 -106 218 -214 260 -72 28 -279 36 -354 15z"/>
        <path d="M7545 5880 c-103 -33 -175 -112 -191 -209 l-7 -41 99 0 99 1 20 32
c55 88 217 89 266 2 10 -16 20 -46 24 -66 l7 -36 -91 -6 c-211 -15 -365 -72
-425 -155 -27 -38 -31 -54 -34 -121 -7 -151 65 -234 231 -263 113 -20 260 21
295 83 24 41 32 36 32 -21 l0 -50 110 0 110 0 0 268 c-1 293 -9 392 -39 451
-30 58 -95 108 -169 131 -87 27 -252 27 -337 0z m315 -508 c0 -61 -34 -130
-78 -155 -17 -10 -58 -21 -90 -24 -76 -7 -128 16 -149 64 -40 96 57 156 260
162 l57 1 0 -48z"/>
        <path d="M6020 5865 c0 -38 229 -817 245 -833 8 -9 199 -11 213 -3 10 6 43 96
87 241 39 127 75 231 81 232 5 0 44 -105 87 -235 89 -269 68 -246 217 -243
l84 1 78 270 c121 420 160 566 154 581 -4 11 -30 14 -106 14 -95 0 -101 -1
-110 -22 -5 -13 -34 -133 -66 -268 -31 -135 -60 -249 -64 -254 -8 -8 -26 44
-127 379 l-48 160 -100 0 -100 0 -52 -205 c-75 -297 -84 -330 -92 -330 -4 0
-17 42 -30 93 -12 50 -46 171 -74 267 l-52 175 -112 3 -113 3 0 -26z"/>
        <path d="M5145 4788 c-3 -7 -4 -263 -3 -568 l3 -555 105 0 105 0 -3 395 c-2
242 1 391 6 385 5 -5 64 -134 132 -285 67 -151 128 -284 135 -295 11 -18 22
-20 98 -18 47 1 90 4 94 6 4 3 67 138 138 301 72 162 132 295 135 296 3 0 5
-177 5 -392 l0 -393 103 -3 102 -3 0 571 0 571 -137 -3 -136 -3 -138 -315
c-76 -173 -141 -321 -146 -328 -5 -9 -30 33 -72 125 -36 76 -106 225 -157 331
l-93 192 -136 0 c-99 0 -137 -3 -140 -12z"/>
        <path d="M8095 4620 l-8 -109 -61 -3 -61 -3 -3 -92 -3 -93 71 0 70 0 0 -234
c0 -246 5 -283 50 -346 11 -16 46 -41 78 -57 51 -25 68 -28 157 -28 55 0 112
3 128 8 27 7 27 8 27 93 l0 85 -59 -7 c-44 -5 -67 -2 -93 10 -62 30 -64 38
-60 313 l2 162 103 3 102 3 0 90 0 90 -102 3 -103 3 0 109 0 110 -114 0 -114
0 -7 -110z"/>
        <path d="M6717 4512 c-120 -33 -199 -112 -213 -214 l-7 -48 102 0 c85 0 101 2
101 16 0 26 54 72 100 84 56 15 128 -2 163 -38 25 -27 53 -105 43 -121 -3 -4
-49 -11 -103 -14 -226 -15 -378 -80 -424 -182 -21 -45 -24 -130 -8 -188 26
-94 128 -157 265 -165 114 -6 185 16 242 74 l42 44 0 -50 0 -50 110 0 110 0 0
263 c-1 377 -14 445 -98 523 -57 52 -129 75 -252 80 -80 3 -121 0 -173 -14z
m289 -534 c-6 -66 -23 -97 -70 -132 -23 -17 -42 -21 -111 -21 -74 0 -86 3
-109 24 -33 31 -41 72 -22 109 26 51 110 79 240 81 l79 1 -7 -62z"/>
        <path d="M7780 4511 c-67 -21 -113 -58 -143 -116 l-16 -30 -1 68 0 67 -115 0
-115 0 0 -425 0 -425 115 0 115 0 0 225 c0 123 5 246 10 273 21 96 105 161
208 162 l52 0 0 105 0 105 -42 -1 c-24 0 -54 -4 -68 -8z"/>
        <path d="M2563 3832 c-29 -10 -70 -31 -93 -47 -48 -33 -116 -131 -127 -183
-53 -248 162 -468 398 -407 107 27 181 87 228 185 21 45 26 69 26 135 0 71 -4
89 -33 147 -56 113 -150 176 -276 184 -53 4 -84 0 -123 -14z"/>
        <path d="M3854 3832 c-207 -74 -287 -321 -164 -501 65 -94 158 -143 275 -144
114 -1 224 61 281 159 34 59 44 98 45 177 1 119 -75 238 -188 293 -72 36 -176
42 -249 16z"/>
    </g>
</svg>